<?xml version="1.0" standalone="no"?>
<!DOCTYPE svg PUBLIC "-//W3C//DTD SVG 20010904//EN"
 "http://www.w3.org/TR/2001/REC-SVG-20010904/DTD/svg10.dtd">
<svg version="1.0" xmlns="http://www.w3.org/2000/svg"
 width="700.000000pt" height="700.000000pt" viewBox="0 0 700.000000 700.000000"
 preserveAspectRatio="xMidYMid meet">
<metadata>
Created by potrace 1.14, written by Peter Selinger 2001-2017
</metadata>
<g transform="translate(0.000000,700.000000) scale(0.100000,-0.100000)"
fill="#000000" stroke="none">
<path d="M0 3500 l0 -3500 3500 0 3500 0 0 3500 0 3500 -3500 0 -3500 0 0
-3500z m2213 2006 c238 -46 430 -229 488 -466 17 -71 17 -209 0 -280 -45 -183
-177 -344 -346 -420 -86 -39 -158 -54 -255 -54 -47 0 -110 6 -140 13 -249 61
-434 267 -471 523 -45 310 177 621 487 682 91 19 147 19 237 2z m1435 -7 c299
-73 509 -381 463 -679 -37 -235 -190 -425 -404 -500 -228 -80 -470 -25 -641
146 -244 244 -244 624 0 868 155 155 371 216 582 165z m1400 0 c299 -73 509
-381 463 -679 -37 -235 -190 -425 -404 -500 -228 -80 -470 -25 -641 146 -244
244 -244 624 0 868 155 155 371 216 582 165z m-2800 -1400 c126 -31 265 -122
340 -223 86 -117 126 -235 126 -376 0 -47 -6 -110 -13 -140 -55 -225 -236
-406 -461 -461 -30 -7 -93 -13 -140 -13 -97 0 -169 15 -255 54 -253 114 -403
400 -352 669 68 351 410 574 755 490z m1400 0 c299 -73 509 -381 463 -679 -37
-235 -190 -425 -404 -500 -228 -80 -470 -25 -641 146 -244 244 -244 624 0 868
155 155 371 216 582 165z m-1400 -1400 c299 -73 509 -381 463 -679 -23 -146
-77 -254 -177 -354 -171 -171 -413 -226 -641 -146 -167 59 -314 206 -373 373
-80 228 -25 470 146 641 155 155 371 216 582 165z"/>
</g>
</svg>
